<?xml version="1.0" encoding="utf-8"?>
<!-- Generator: Adobe Illustrator 25.3.1, SVG Export Plug-In . SVG Version: 6.00 Build 0)  -->
<svg version="1.1" id="레이어_1" xmlns="http://www.w3.org/2000/svg" xmlns:xlink="http://www.w3.org/1999/xlink" x="0px"
	 y="0px" viewBox="0 0 300 97.3" style="enable-background:new 0 0 300 97.3;" xml:space="preserve">
<style type="text/css">
	.st0{fill:#AFA89E;}
</style>
<path class="st0" d="M2.6,45.2h1.5v9.1h18.7v-9.1h1.5v-3.6H2.6V45.2z M22.3,53.8H4.7v-8.6h17.6V53.8z M3.1,42.2h20.7v2.5h-1H4.1h-1
	V42.2z M2.6,19.5h1.5V31H2.6v5.8h21.7V31h-1.5V19.5h1.5v-3.6H2.6V19.5z M23.8,31.6v4.8H3.1v-4.8h1h18.7H23.8z M4.7,31V19.5h17.6V31
	H4.7z M3.1,16.4h20.7v2.5h-1H4.1h-1V16.4z M29,45.2h1.5v9.1h18.7v-9.1h1.5v-3.6H29V45.2z M48.7,53.8H31.1v-8.6h17.6V53.8z
	 M29.6,42.2h20.7v2.5h-1H30.5h-1V42.2z M29,19.5h1.5V31H29v5.8h21.7V31h-1.5V19.5h1.5v-3.6H29V19.5z M50.2,31.6v4.8H29.6v-4.8h1
	h18.7H50.2z M31.1,31V19.5h17.6V31H31.1z M29.6,16.4h20.7v2.5h-1H30.5h-1V16.4z M55.4,45.2H57v9.1h18.7v-9.1h1.5v-3.6H55.4V45.2z
	 M75.1,53.8H57.5v-8.6h17.6V53.8z M56,42.2h20.7v2.5h-1H57h-1V42.2z M55.4,19.5H57V31h-1.5v5.8h21.7V31h-1.5V19.5h1.5v-3.6H55.4
	V19.5z M76.7,31.6v4.8H56v-4.8h1h18.7H76.7z M57.5,31V19.5h17.6V31H57.5z M56,16.4h20.7v2.5h-1H57h-1V16.4z M81.9,45.2h1.5v9.1h18.7
	v-9.1h1.5v-3.6H81.9V45.2z M101.6,53.8H83.9v-8.6h17.6V53.8z M82.4,42.2h20.7v2.5h-1H83.4h-1V42.2z M81.9,19.5h1.5V31h-1.5v5.8h21.7
	V31h-1.5V19.5h1.5v-3.6H81.9V19.5z M103.1,31.6v4.8H82.4v-4.8h1h18.7H103.1z M83.9,31V19.5h17.6V31H83.9z M82.4,16.4h20.7v2.5h-1
	H83.4h-1V16.4z M108.3,45.2h1.5v11.6h-1.5v5.8H130v-5.8h-1.5V45.2h1.5v-3.6h-21.7V45.2z M129.5,57.3v4.8h-20.7v-4.8h1h18.7H129.5z
	 M110.3,56.8V45.2H128v11.6H110.3z M108.8,42.2h20.7v2.5h-1h-18.7h-1V42.2z M108.3,19.5h1.5V31h-1.5v5.8H130V31h-1.5V19.5h1.5v-3.6
	h-21.7V19.5z M129.5,31.6v4.8h-20.7v-4.8h1h18.7H129.5z M110.3,31V19.5H128V31H110.3z M108.8,16.4h20.7v2.5h-1h-18.7h-1V16.4z
	 M134.7,45.2h1.5v11.6h-1.5v5.8h21.7v-5.8h-1.5V45.2h1.5v-3.6h-21.7V45.2z M155.9,57.3v4.8h-20.7v-4.8h1h18.7H155.9z M136.8,56.8
	V45.2h17.6v11.6H136.8z M135.2,42.2h20.7v2.5h-1h-18.7h-1V42.2z M134.7,19.5h1.5V31h-1.5v5.8h21.7V31h-1.5V19.5h1.5v-3.6h-21.7V19.5
	z M155.9,31.6v4.8h-20.7v-4.8h1h18.7H155.9z M136.8,31V19.5h17.6V31H136.8z M135.2,16.4h20.7v2.5h-1h-18.7h-1V16.4z M161.1,45.2h1.5
	v11.6h-1.5v5.8h21.7v-5.8h-1.5V45.2h1.5v-3.6h-21.7V45.2z M182.3,57.3v4.8h-20.7v-4.8h1h18.7H182.3z M163.2,56.8V45.2h17.6v11.6
	H163.2z M161.7,42.2h20.7v2.5h-1h-18.7h-1V42.2z M161.1,19.5h1.5V31h-1.5v5.8h21.7V31h-1.5V19.5h1.5v-3.6h-21.7V19.5z M182.3,31.6
	v4.8h-20.7v-4.8h1h18.7H182.3z M163.2,31V19.5h17.6V31H163.2z M161.7,16.4h20.7v2.5h-1h-18.7h-1V16.4z M187.6,45.2h1.5v11.6h-1.5
	v5.8h21.7v-5.8h-1.5V45.2h1.5v-3.6h-21.7V45.2z M208.8,57.3v4.8h-20.7v-4.8h1h18.7H208.8z M189.6,56.8V45.2h17.6v11.6H189.6z
	 M188.1,42.2h20.7v2.5h-1h-18.7h-1V42.2z M187.6,19.5h1.5V31h-1.5v5.8h21.7V31h-1.5V19.5h1.5v-3.6h-21.7V19.5z M208.8,31.6v4.8
	h-20.7v-4.8h1h18.7H208.8z M189.6,31V19.5h17.6V31H189.6z M188.1,16.4h20.7v2.5h-1h-18.7h-1V16.4z M214,45.2h1.5v11.6H214v5.8h21.7
	v-5.8h-1.5V45.2h1.5v-3.6H214V45.2z M235.2,57.3v4.8h-20.7v-4.8h1h18.7H235.2z M216,56.8V45.2h17.6v11.6H216z M214.5,42.2h20.7v2.5
	h-1h-18.7h-1V42.2z M214,19.5h1.5V31H214v5.8h21.7V31h-1.5V19.5h1.5v-3.6H214V19.5z M235.2,31.6v4.8h-20.7v-4.8h1h18.7H235.2z
	 M216,31V19.5h17.6V31H216z M214.5,16.4h20.7v2.5h-1h-18.7h-1V16.4z M240.4,45.2h1.5v11.6h-1.5v5.8h21.7v-5.8h-1.5V45.2h1.5v-3.6
	h-21.7V45.2z M261.6,57.3v4.8h-20.7v-4.8h1h18.7H261.6z M242.4,56.8V45.2h17.6v11.6H242.4z M240.9,42.2h20.7v2.5h-1h-18.7h-1V42.2z
	 M240.4,19.5h1.5V31h-1.5v5.8h21.7V31h-1.5V19.5h1.5v-3.6h-21.7V19.5z M261.6,31.6v4.8h-20.7v-4.8h1h18.7H261.6z M242.4,31V19.5
	h17.6V31H242.4z M240.9,16.4h20.7v2.5h-1h-18.7h-1V16.4z M292.5,18.9h-7.6v12.7h7.6V18.9z M292,31.1h-6.5V19.5h6.5V31.1z
	 M292.5,72.7h-7.6v12.7h7.6V72.7z M292,84.9h-6.5V73.3h6.5V84.9z M258.1,0v5.6l-6.7-3.1l0,0l0,0l-0.1,0l0,0L245.7,0l-0.1,0H19.1
	l-5.7,2.5l0,0l-0.1,0l0,0l0,0L0,8.6v80.4v7.9h26.4H27h25.9h0.5h25.9h0.5h25.9h0.5h25.9h0.5h25.9h0.5h25.9h0.5h25.9h0.5h25.9h0.5
	h26.2h0.3H300V0H258.1z M26.4,96.4H0.5v-6.8h3.6h18.7h3.6V96.4z M4.7,89.1V68.4h17.6v20.7H4.7z M26.4,89.1h-3.6V67.9H4.1v21.2H0.5V9
	l12.9-5.9L26.4,9V89.1z M52.8,96.4H27v-6.8h3.6h18.7h3.6V96.4z M31.1,89.1V68.4h17.6v20.7H31.1z M52.8,89.1h-3.6V67.9H30.5v21.2H27
	V9l12.9-5.9L52.8,9V89.1z M79.3,96.4H53.4v-6.8H57h18.7h3.6V96.4z M57.5,89.1V68.4h17.6v20.7H57.5z M79.3,89.1h-3.6V67.9H57v21.2
	h-3.6V9l12.9-5.9L79.3,9V89.1z M105.7,96.4H79.8v-6.8h3.6h18.7h3.6V96.4z M83.9,89.1V68.4h17.6v20.7H83.9z M105.7,89.1h-3.6V67.9
	H83.4v21.2h-3.6V9l12.9-5.9L105.7,9V89.1z M132.1,96.4h-25.9v-6.8h3.6h18.7h3.6V96.4z M110.3,89.1V68.4H128v20.7H110.3z M132.1,89.1
	h-3.6V67.9h-18.7v21.2h-3.6V9l12.9-5.9L132.1,9V89.1z M158.5,96.4h-25.9v-6.8h3.6h18.7h3.6V96.4z M136.8,89.1V68.4h17.6v20.7H136.8z
	 M158.5,89.1h-3.6V67.9h-18.7v21.2h-3.6V9l12.9-5.9L158.5,9V89.1z M184.9,96.4h-25.9v-6.8h3.6h18.7h3.6V96.4z M163.2,89.1V68.4h17.6
	v20.7H163.2z M184.9,89.1h-3.6V67.9h-18.7v21.2h-3.6V9L172,3.1L184.9,9V89.1z M211.4,96.4h-25.9v-6.8h3.6h18.7h3.6V96.4z
	 M189.6,89.1V68.4h17.6v20.7H189.6z M211.4,89.1h-3.6V67.9h-18.7v21.2h-3.6V9l12.9-5.9L211.4,9V89.1z M237.8,96.4h-25.9v-6.8h3.6
	h18.7h3.6V96.4z M216,89.1V68.4h17.6v20.7H216z M237.8,89.1h-3.6V67.9h-18.7v21.2h-3.6V9l12.9-5.9L237.8,9V89.1z M238.1,8.5l-13.2-6
	l-13.2,6l-13.2-6l-13.2,6l-13.2-6l-13.2,6l-13.2-6l-13.2,6l-13.2-6l-13.2,6l-13.2-6l-13.2,6l-13.2-6l-13.2,6l-13.2-6l-13.2,6
	L14.1,2.8l5.1-2.2h226.3l5.1,2.2L238.1,8.5z M264.2,96.4h-25.9v-6.8h3.6h18.7h3.6V96.4z M242.4,89.1V68.4h17.6v20.7H242.4z
	 M264.2,89.1h-3.6V67.9h-18.7v21.2h-3.6V9l12.9-5.9L264.2,9V89.1z M299.5,96.4h-34.7v-7.3V8.6l-6.1-2.8V0.5h40.9V96.4z"/>
</svg>
