<?xml version="1.0" encoding="utf-8"?>
<!-- Generator: Adobe Illustrator 26.3.1, SVG Export Plug-In . SVG Version: 6.00 Build 0)  -->
<svg version="1.1" id="레이어_1" xmlns="http://www.w3.org/2000/svg" xmlns:xlink="http://www.w3.org/1999/xlink" x="0px"
	 y="0px" viewBox="0 0 25.51 25.51" style="enable-background:new 0 0 25.51 25.51;" xml:space="preserve">
<style type="text/css">
	.st0{fill:#FFFFFF;}
</style>
<g>
	<g>
		<path class="st0" d="M5.57,9.66c-0.49,0-0.88,0.39-0.88,0.88s0.39,0.88,0.88,0.88c0.49,0,0.88-0.39,0.88-0.88S6.05,9.66,5.57,9.66
			z"/>
		<circle class="st0" cx="14.24" cy="10.51" r="0.95"/>
		<path class="st0" d="M22.1,0.92H3.41C1.53,0.92,0,2.45,0,4.34v11.09c0,1.88,1.53,3.41,3.41,3.41h6.6l2.24,5.29
			c0,0,0.15,0.46,0.53,0.46c0,0,0,0,0,0c0.37,0,0.53-0.46,0.53-0.46l2.24-5.29h6.54c1.88,0,3.41-1.53,3.41-3.41V4.34
			C25.51,2.45,23.98,0.92,22.1,0.92z M8.02,10.73C8,12.75,5.91,12.81,5.91,12.81c-0.81,0-1.27-0.54-1.27-0.54v0.37H3.11v-6.3
			c-0.01,0-0.01,0,0,0v0c0.09,0.02,1.53,0,1.53,0v2.41c0.36-0.61,1.4-0.6,1.4-0.6C8.3,8.36,8.02,10.73,8.02,10.73z M10.7,8.34v4.31
			H9.21V8.38c0-0.58-0.72-0.74-0.72-0.74v-1.5C10.87,6.23,10.7,8.34,10.7,8.34z M14.24,12.82c-1.38,0-2.5-1.03-2.5-2.31
			s1.12-2.31,2.5-2.31c1.38,0,2.5,1.03,2.5,2.31S15.63,12.82,14.24,12.82z M22.43,12.82c0,0,0.02,2.19-2.2,2.19h-0.68v-1.42h0.41
			c0,0,0.94,0.09,0.92-1.35c0,0-0.18,0.58-1.49,0.58c0,0-1.86-0.13-1.86-1.95v-0.69c0,0,0.04-1.88,2.09-2.03c0,0,0.81-0.09,1.3,0.58
			V8.27h1.52V12.82z"/>
		<circle class="st0" cx="20.05" cy="10.51" r="0.92"/>
	</g>
</g>
</svg>
